<?xml version="1.0" encoding="utf-8"?>
<!-- Generator: Adobe Illustrator 23.0.1, SVG Export Plug-In . SVG Version: 6.00 Build 0)  -->
<svg version="1.1" id="Layer_1" xmlns="http://www.w3.org/2000/svg" xmlns:xlink="http://www.w3.org/1999/xlink" x="0px" y="0px"
	 viewBox="0 0 534.61 534.61" style="enable-background:new 0 0 534.61 534.61;" xml:space="preserve">
<style type="text/css">
	.st0{fill:none;stroke:#FFFFFF;stroke-width:25;stroke-linecap:round;stroke-linejoin:round;stroke-miterlimit:10;}
</style>
<line class="st0" x1="58.38" y1="241.43" x2="141.19" y2="98.01"/>
<line class="st0" x1="141.19" y1="434.99" x2="58.38" y2="291.57"/>
<line class="st0" x1="350.35" y1="460.13" x2="184.65" y2="460.13"/>
<line class="st0" x1="476.62" y1="291.57" x2="393.81" y2="434.99"/>
<polyline class="st0" points="393.81,98.01 413.95,132.89 476.61,241.43 "/>
<line class="st0" x1="184.65" y1="72.87" x2="350.35" y2="72.87"/>
<polygon class="st0" points="194.54,308.62 194.54,224.38 267.5,182.25 340.46,224.38 340.46,308.62 334.89,311.84 317.84,321.68 
	267.5,350.75 "/>
<circle class="st0" cx="155.47" cy="72.57" r="29.18"/>
<circle class="st0" cx="267.5" cy="266.5" r="29.18"/>
<circle class="st0" cx="43.44" cy="266.5" r="29.18"/>
<circle class="st0" cx="491.56" cy="266.5" r="29.18"/>
<circle class="st0" cx="379.53" cy="72.57" r="29.18"/>
<circle class="st0" cx="155.47" cy="460.43" r="29.18"/>
<circle class="st0" cx="379.53" cy="460.43" r="29.18"/>
<line class="st0" x1="183.71" y1="266.5" x2="72.63" y2="266.5"/>
<line class="st0" x1="309.86" y1="338.99" x2="365.41" y2="435.01"/>
<line class="st0" x1="225.14" y1="338.99" x2="169.59" y2="435.01"/>
<line class="st0" x1="351.29" y1="266.5" x2="462.37" y2="266.5"/>
<line class="st0" x1="309.86" y1="194.01" x2="365.01" y2="97.88"/>
<line class="st0" x1="225.14" y1="194.01" x2="169.99" y2="97.88"/>
</svg>
