<?xml version="1.0" encoding="utf-8"?>
<!-- Generator: Adobe Illustrator 23.0.1, SVG Export Plug-In . SVG Version: 6.00 Build 0)  -->
<svg version="1.1" id="Layer_1" xmlns="http://www.w3.org/2000/svg" xmlns:xlink="http://www.w3.org/1999/xlink" x="0px" y="0px"
	 viewBox="0 0 1357.13 595.28" style="enable-background:new 0 0 1357.13 595.28;" xml:space="preserve">
<style type="text/css">
	.st0{fill:#FFFFFF;}
	.st1{fill:url(#SVGID_1_);}
	.st2{fill:url(#SVGID_2_);}
	.st3{fill:url(#SVGID_3_);}
	.st4{fill:url(#SVGID_4_);}
	.st5{fill:url(#SVGID_5_);}
	.st6{fill:url(#SVGID_6_);}
	.st7{fill:url(#SVGID_7_);}
	.st8{fill:url(#SVGID_8_);}
	.st9{fill:url(#SVGID_9_);}
	.st10{fill:url(#SVGID_10_);}
	.st11{fill:url(#SVGID_11_);}
	.st12{fill:url(#SVGID_12_);}
	.st13{fill:url(#SVGID_13_);}
</style>
<g id="H9aRfY.tif">
	<g>
		<path class="st0" d="M268.29,473.12c-1.44-3.44-2.87-6.89-4.32-10.32c-0.67-1.58-1.41-3.13-2.03-4.73
			c-0.23-0.6-0.34-1.28-0.34-1.93c-0.05-36.77-0.08-73.54-0.11-110.32c0-0.35,0.04-0.69,0.07-1.14c4.53,0,9.02,0,13.64,0
			c0.02,0.47,0.07,0.94,0.07,1.41c0.02,36.55,0.02,73.1,0.06,109.66c0,2.43-1.33,4.34-2.17,6.44c-1.47,3.67-3.06,7.29-4.6,10.93
			C268.46,473.12,268.37,473.12,268.29,473.12z"/>
		<path class="st0" d="M296.91,327.62c-18.49,0-36.89,0-55.42,0c1.2-4.37,2.37-8.65,3.55-12.92c4.82-17.38,9.66-34.75,14.46-52.13
			c1.11-4.01-0.15-6.73-3.89-8.6c-4.6-2.31-8.68-5.25-11.71-9.5c-3.28-4.59-4.79-9.75-5.11-15.35c-0.39-6.69,1.12-12.87,5.13-18.22
			c13.2-17.62,38.46-15.9,48.94,2.58c7.8,13.76,3.23,30.4-9.66,38.49c-3.2,2.01-4.68,4.93-3.58,9.12
			c5.71,21.62,11.28,43.28,16.9,64.92C296.66,326.52,296.77,327.02,296.91,327.62z"/>
		<path class="st0" d="M303.72,390.22c0-17.24,0-34.48,0-51.84c2.35,0,4.63,0,7.03,0c-1.67-6.44-3.29-12.74-4.92-19.04
			c-0.55-2.13-1.18-4.24-1.65-6.38c-0.29-1.32-0.49-2.7-0.5-4.05c-0.02-20.99-0.02-41.99,0.03-62.98c0-1.07,0.23-2.2,0.62-3.19
			c3.99-10.09,3.83-20.15-0.04-30.22c-0.35-0.92-0.57-1.96-0.57-2.94c-0.03-17.37-0.01-34.74,0-52.11c0-0.46,0-0.91,0-1.37
			c0.11-0.02,0.21-0.05,0.32-0.07c1.87,2.86,3.75,5.71,5.62,8.58c2.34,3.58,4.7,7.14,6.98,10.76c0.46,0.73,0.77,1.7,0.77,2.56
			c0.05,14.32,0.04,28.64,0.03,42.96c-0.03,45.25-0.07,90.51-0.09,135.76c0,1.75-0.28,3.35-0.99,4.98c-4.06,9.28-8.01,18.6-12,27.91
			c-0.12,0.27-0.27,0.52-0.41,0.78C303.87,390.29,303.79,390.26,303.72,390.22z"/>
		<path class="st0" d="M233.36,154.85c0.04,0.8,0.08,1.23,0.08,1.65c0.01,16.49,0.02,32.98,0,49.47c0,0.8-0.19,1.68-0.56,2.39
			c-6.63,12.79-6.37,25.58-0.13,38.41c0.41,0.84,0.69,1.83,0.69,2.75c0.04,21.84,0.1,43.68-0.03,65.51
			c-0.01,2.53-0.97,5.07-1.63,7.57c-1.38,5.22-2.86,10.42-4.33,15.77c2.03,0,3.96,0,5.97,0c0,17.63,0,35.15,0,53.09
			c-0.36-0.63-0.56-0.92-0.7-1.24c-4.21-9.74-8.42-19.47-12.59-29.23c-0.3-0.7-0.32-1.55-0.32-2.33
			c-0.02-48.23-0.03-96.46-0.04-144.69c0-12.38-0.01-24.76,0.02-37.13c0-0.74,0.21-1.59,0.6-2.21c4.1-6.38,8.26-12.73,12.4-19.08
			C232.88,155.4,233,155.28,233.36,154.85z"/>
		<path class="st0" d="M268.27,101.21c2.29,3.52,4.47,6.82,6.6,10.16c0.24,0.37,0.26,0.93,0.26,1.4
			c0.01,24.88,0.02,49.77,0.02,74.65c0,0.35-0.05,0.69-0.06,0.83c-4.55,0-9.03,0-13.64,0c0-0.39,0-0.87,0-1.35
			c0-24.62-0.02-49.24,0.02-73.86c0-0.86,0.31-1.83,0.77-2.57C264.14,107.42,266.16,104.42,268.27,101.21z"/>
		<path class="st0" d="M68.25,221.47c3.03,3.65,5.82,7.01,8.6,10.36c1.46,1.77,2.96,3.51,4.36,5.33c0.37,0.48,0.66,1.17,0.66,1.77
			c0.01,10.16-0.02,20.33-0.08,30.49c0,0.54-0.18,1.13-0.42,1.62c-3.77,7.76-7.56,15.52-11.35,23.27c-0.52,1.06-1.02,2.12-1.77,3.12
			C68.25,272.24,68.25,247.05,68.25,221.47z"/>
		<path class="st0" d="M468.31,297.54c-2.3-4.7-4.6-9.39-6.9-14.09c-1.99-4.07-4-8.14-5.95-12.24c-0.31-0.65-0.5-1.42-0.5-2.14
			c-0.03-10.03-0.03-20.06-0.01-30.09c0-0.54,0.11-1.2,0.43-1.59c4.22-5.16,8.48-10.28,12.74-15.41c0.08-0.09,0.19-0.15,0.41-0.31
			c0,25.35,0,50.58,0,75.82C468.45,297.51,468.38,297.52,468.31,297.54z"/>
		<path class="st0" d="M191.62,218.8c0,25.38,0,50.44,0,75.5c-0.07,0.02-0.14,0.04-0.21,0.05c-1.18-2.72-2.36-5.44-3.54-8.17
			c-3.15-7.31-6.3-14.62-9.41-21.94c-0.28-0.67-0.43-1.44-0.43-2.17c-0.03-7.16-0.03-14.31,0-21.47c0-0.62,0.16-1.34,0.49-1.85
			c4.11-6.37,8.26-12.71,12.41-19.06C191.1,219.46,191.29,219.24,191.62,218.8z"/>
		<path class="st0" d="M345.51,219.61c1.48,2.25,2.78,4.22,4.07,6.19c2.94,4.5,5.9,8.99,8.79,13.53c0.42,0.66,0.71,1.54,0.72,2.32
			c0.06,6.36,0.04,12.72,0.02,19.09c0,0.69-0.09,1.43-0.36,2.06c-4.27,10.03-8.58,20.04-12.89,30.06c-0.05,0.11-0.14,0.2-0.35,0.48
			C345.51,268.75,345.51,244.37,345.51,219.61z"/>
	</g>
</g>
<g>
	<linearGradient id="SVGID_1_" gradientUnits="userSpaceOnUse" x1="92.1439" y1="228.6231" x2="92.1439" y2="219.2176">
		<stop  offset="0" style="stop-color:#D50DE9"/>
		<stop  offset="0.1483" style="stop-color:#AE3AE2"/>
		<stop  offset="0.3113" style="stop-color:#8866DC"/>
		<stop  offset="0.4385" style="stop-color:#7181D8"/>
		<stop  offset="0.5132" style="stop-color:#688BD6"/>
		<stop  offset="0.6092" style="stop-color:#5998D2"/>
		<stop  offset="0.7931" style="stop-color:#33BBC9"/>
		<stop  offset="1" style="stop-color:#00E8BC"/>
	</linearGradient>
	<path class="st1" d="M96.05,228.62l-7.82-9.41l6.97,8.35C95.49,227.91,95.78,228.27,96.05,228.62z"/>
	<linearGradient id="SVGID_2_" gradientUnits="userSpaceOnUse" x1="241.4152" y1="504.831" x2="241.4152" y2="446.6833">
		<stop  offset="0" style="stop-color:#D50DE9"/>
		<stop  offset="0.1483" style="stop-color:#AE3AE2"/>
		<stop  offset="0.3113" style="stop-color:#8866DC"/>
		<stop  offset="0.4385" style="stop-color:#7181D8"/>
		<stop  offset="0.5132" style="stop-color:#688BD6"/>
		<stop  offset="0.6092" style="stop-color:#5998D2"/>
		<stop  offset="0.7931" style="stop-color:#33BBC9"/>
		<stop  offset="1" style="stop-color:#00E8BC"/>
	</linearGradient>
	<path class="st2" d="M253.96,504.83c-0.41-0.68-0.78-1.41-1.13-2.21l-23.97-55.94L253.96,504.83z"/>
	<linearGradient id="SVGID_3_" gradientUnits="userSpaceOnUse" x1="405.2669" y1="299.2241" x2="405.2669" y2="276.8695">
		<stop  offset="0" style="stop-color:#D50DE9"/>
		<stop  offset="0.1483" style="stop-color:#AE3AE2"/>
		<stop  offset="0.3113" style="stop-color:#8866DC"/>
		<stop  offset="0.4385" style="stop-color:#7181D8"/>
		<stop  offset="0.5132" style="stop-color:#688BD6"/>
		<stop  offset="0.6092" style="stop-color:#5998D2"/>
		<stop  offset="0.7931" style="stop-color:#33BBC9"/>
		<stop  offset="1" style="stop-color:#00E8BC"/>
	</linearGradient>
	<path class="st3" d="M410.04,277.04l-0.11,0.25l-9.43,21.93l9.21-21.72c0.05-0.12,0.1-0.24,0.15-0.36
		c0.04-0.09,0.08-0.18,0.11-0.27C409.99,276.93,410.01,276.98,410.04,277.04z"/>
	<linearGradient id="SVGID_4_" gradientUnits="userSpaceOnUse" x1="459.4855" y1="206.5699" x2="459.4855" y2="204.962">
		<stop  offset="0" style="stop-color:#D50DE9"/>
		<stop  offset="0.1483" style="stop-color:#AE3AE2"/>
		<stop  offset="0.3113" style="stop-color:#8866DC"/>
		<stop  offset="0.4385" style="stop-color:#7181D8"/>
		<stop  offset="0.5132" style="stop-color:#688BD6"/>
		<stop  offset="0.6092" style="stop-color:#5998D2"/>
		<stop  offset="0.7931" style="stop-color:#33BBC9"/>
		<stop  offset="1" style="stop-color:#00E8BC"/>
	</linearGradient>
	<path class="st4" d="M460.16,204.96l-1.35,1.61C459.21,206.05,459.66,205.51,460.16,204.96z"/>
</g>
<g>
	<linearGradient id="SVGID_5_" gradientUnits="userSpaceOnUse" x1="233.574" y1="118.9732" x2="233.574" y2="96.8129">
		<stop  offset="0" style="stop-color:#D50DE9"/>
		<stop  offset="0.1483" style="stop-color:#AE3AE2"/>
		<stop  offset="0.3113" style="stop-color:#8866DC"/>
		<stop  offset="0.4385" style="stop-color:#7181D8"/>
		<stop  offset="0.5132" style="stop-color:#688BD6"/>
		<stop  offset="0.6092" style="stop-color:#5998D2"/>
		<stop  offset="0.7931" style="stop-color:#33BBC9"/>
		<stop  offset="1" style="stop-color:#00E8BC"/>
	</linearGradient>
	<path class="st5" d="M240.85,96.81l-14.54,22.16l13.76-21.02C240.32,97.56,240.58,97.18,240.85,96.81z"/>
</g>
<g>
	<linearGradient id="SVGID_6_" gradientUnits="userSpaceOnUse" x1="409.8557" y1="278.1591" x2="410.9945" y2="278.1591">
		<stop  offset="0" style="stop-color:#E249DE"/>
		<stop  offset="0.3216" style="stop-color:#9337D8"/>
		<stop  offset="0.492" style="stop-color:#6E2FD5"/>
		<stop  offset="0.5913" style="stop-color:#7E32D6"/>
		<stop  offset="0.7865" style="stop-color:#A93ADA"/>
		<stop  offset="1" style="stop-color:#DF44DF"/>
	</linearGradient>
	<path class="st6" d="M410.99,279.45l-1.07-2.16l-0.07-0.15c0.04-0.09,0.08-0.18,0.11-0.27c0.02,0.06,0.04,0.11,0.07,0.17
		C410.34,277.85,410.66,278.65,410.99,279.45z"/>
</g>
<g>
	<linearGradient id="SVGID_7_" gradientUnits="userSpaceOnUse" x1="204.6375" y1="487.4067" x2="229.8727" y2="487.4067">
		<stop  offset="0" style="stop-color:#E249DE"/>
		<stop  offset="0.3216" style="stop-color:#9337D8"/>
		<stop  offset="0.492" style="stop-color:#6E2FD5"/>
		<stop  offset="0.5913" style="stop-color:#7E32D6"/>
		<stop  offset="0.7865" style="stop-color:#A93ADA"/>
		<stop  offset="1" style="stop-color:#DF44DF"/>
	</linearGradient>
	<path class="st7" d="M229.87,516.64c-0.6-1.12-1.16-2.28-1.67-3.46l-23.57-55.01L229.87,516.64z"/>
</g>
<g>
	<linearGradient id="SVGID_8_" gradientUnits="userSpaceOnUse" x1="268.4801" y1="585.6816" x2="268.4801" y2="17.2685">
		<stop  offset="0" style="stop-color:#FF219D"/>
		<stop  offset="0.146" style="stop-color:#E040AB"/>
		<stop  offset="0.4641" style="stop-color:#918DD0"/>
		<stop  offset="0.5132" style="stop-color:#849AD6"/>
		<stop  offset="0.7674" style="stop-color:#3DD0DE"/>
		<stop  offset="1" style="stop-color:#00FFE5"/>
	</linearGradient>
	<path class="st8" d="M515.41,431.13l-79.93-162.61l-0.01-0.01c-5.56-13.64-3.74-29.33,5.78-40.74l6.97-8.35
		c0.33-0.4,0.64-0.81,0.92-1.24c0.01,0,0.01-0.01,0.01-0.01l9.32-11.19c0.04-0.05,0.09-0.09,0.13-0.15
		c0.03-0.04,0.07-0.09,0.11-0.13c0.03-0.04,0.07-0.09,0.11-0.13c0.4-0.52,0.85-1.06,1.35-1.61c0.01-0.01,0.03-0.03,0.03-0.04
		c5.49-6.06,16.17-13.44,21.79-9.96c5.04,3.11,7.26,7.03,7.26,21.32l6.24-19.53l-15.26-15.88l33.15-39.79
		c4.74-5.69,3.97-14.13-1.72-18.87c-5.69-4.74-14.13-3.97-18.87,1.72l-82.38,98.9L279.44,23.32c-2.48-3.78-6.69-6.05-11.2-6.05
		c-4.52,0-8.73,2.27-11.21,6.05l-38.31,58.38c-0.05,0.07-0.1,0.15-0.15,0.22l-14.69,22.38c-0.02,0.03-0.04,0.07-0.07,0.1
		l-49.28,75.09c-0.02,0.03-0.04,0.06-0.06,0.09l-0.15,0.23l-28.23,43.02l-9.25-11.12l-7.01-8.43l-1.03-1.23l-64.92-78.07
		c-4.73-5.69-13.18-6.46-18.87-1.73c-5.69,4.73-6.46,13.18-1.73,18.86l32.73,39.36l-15.29,15.9l6.24,19.53
		c0-14.3,2.22-18.21,7.26-21.33c5.72-3.54,16.7,4.17,22.08,10.3c0.01,0.01,0.02,0.03,0.03,0.03l0.9,1.09
		c0.06,0.06,0.11,0.13,0.15,0.19c0.17,0.23,0.32,0.4,0.44,0.51c0,0.01,0.01,0.01,0.01,0.01l10.4,12.5l6.97,8.35
		c0.29,0.35,0.58,0.7,0.85,1.06c8.06,10.34,10.5,23.88,6.8,36.23L21.55,430.93c-3.26,6.65-0.5,14.67,6.14,17.92
		c1.9,0.93,3.91,1.37,5.88,1.37c4.95,0,9.71-2.76,12.04-7.51l7.75-15.83l96.94-94.6l2.98,6.91l0.14,0.33
		c0.01,0.03,0.03,0.07,0.05,0.11l50.76,117.61l0.4,0.94l25.24,58.47v0.01l26.3,60.94c2.12,4.91,6.95,8.09,12.31,8.09h0.01
		c5.35-0.01,10.18-3.19,12.3-8.11l90.7-210.91c0.61-0.82,1.13-1.73,1.54-2.71l13.27-31.28l97.71,95.34l7.35,14.95
		c2.33,4.74,7.09,7.49,12.04,7.49c1.98,0,4-0.44,5.9-1.38C515.93,445.81,518.67,437.77,515.41,431.13z M70.91,391.03l36.21-73.97
		c0.69-0.81,1.29-1.72,1.79-2.73l15.48-31.31c0.87-1.76,1.65-3.54,2.36-5.34l17.87,41.42L70.91,391.03z M385.04,267.04l-9.58,22.59
		L375.3,290l-66.72,155.16c-0.01,0.02-0.03,0.04-0.03,0.06c-0.27,0.46-0.51,0.93-0.72,1.43l-24.22,56.03
		c-4.05,9.36-12.76,10.1-15.37,10.1h-0.02c-2.37-0.01-9.89-0.63-14.24-7.92c-0.01-0.01-0.01-0.01-0.01-0.02
		c-0.41-0.68-0.78-1.41-1.13-2.21l-23.97-55.94l-50.81-117.72l-0.72-1.67l-25.89-60.45c-5.31-12.4-4.13-26.58,3.16-37.92l22.4-34.87
		c0.01-0.01,0.01-0.01,0.01-0.02l49.26-75.06l13.76-21.02c0.25-0.39,0.52-0.77,0.78-1.14c0.02-0.03,0.04-0.07,0.06-0.09
		c6.35-8.86,16.18-13.91,27.18-13.91c0.01,0,0.01,0,0.01,0c11.51,0.01,21.72,5.53,28.02,15.16l13.74,21
		c0.5,0.76,1.05,1.45,1.67,2.07c0,0,0,0.01,0.01,0.01l36.44,55.52c0.01,0.01,0.01,0.01,0.01,0.01c0.36,1.07,0.86,2.12,1.5,3.1
		l32.18,49.33C389.06,240.35,390.33,254.58,385.04,267.04z M391.92,319.44l-0.08-0.08l8.41-19.56l0.25-0.57l9.21-21.72
		c0.05-0.12,0.1-0.24,0.15-0.36c0.04-0.09,0.08-0.18,0.11-0.27c0.02,0.06,0.04,0.11,0.07,0.17c0.3,0.8,0.62,1.61,0.96,2.4
		c0.01,0.02,0.01,0.03,0.03,0.05l17.5,35.61c0,0.01,0.01,0.03,0.01,0.03l37.8,76.89L391.92,319.44z"/>
</g>
<g>
	<linearGradient id="SVGID_9_" gradientUnits="userSpaceOnUse" x1="203.8805" y1="93.1049" x2="218.5715" y2="93.1049">
		<stop  offset="0" style="stop-color:#E249DE"/>
		<stop  offset="0.3216" style="stop-color:#9337D8"/>
		<stop  offset="0.492" style="stop-color:#6E2FD5"/>
		<stop  offset="0.5913" style="stop-color:#7E32D6"/>
		<stop  offset="0.7865" style="stop-color:#A93ADA"/>
		<stop  offset="1" style="stop-color:#DF44DF"/>
	</linearGradient>
	<path class="st9" d="M218.57,81.91l-14.69,22.38l13.77-21.02C217.95,82.82,218.26,82.36,218.57,81.91z"/>
</g>
<g>
	<linearGradient id="SVGID_10_" gradientUnits="userSpaceOnUse" x1="391.842" y1="309.6144" x2="400.2493" y2="309.6144">
		<stop  offset="0" style="stop-color:#E249DE"/>
		<stop  offset="0.3216" style="stop-color:#9337D8"/>
		<stop  offset="0.492" style="stop-color:#6E2FD5"/>
		<stop  offset="0.5913" style="stop-color:#7E32D6"/>
		<stop  offset="0.7865" style="stop-color:#A93ADA"/>
		<stop  offset="1" style="stop-color:#DF44DF"/>
	</linearGradient>
	<polygon class="st10" points="400.25,299.79 391.92,319.44 391.84,319.35 	"/>
</g>
<g>
	<linearGradient id="SVGID_11_" gradientUnits="userSpaceOnUse" x1="109.8328" y1="207.4943" x2="116.8399" y2="207.4943">
		<stop  offset="0" style="stop-color:#E249DE"/>
		<stop  offset="0.3216" style="stop-color:#9337D8"/>
		<stop  offset="0.492" style="stop-color:#6E2FD5"/>
		<stop  offset="0.5913" style="stop-color:#7E32D6"/>
		<stop  offset="0.7865" style="stop-color:#A93ADA"/>
		<stop  offset="1" style="stop-color:#DF44DF"/>
	</linearGradient>
	<path class="st11" d="M116.84,211.71l-7.01-8.43l5.94,7.11C116.14,210.83,116.49,211.27,116.84,211.71z"/>
</g>
<g>
	<linearGradient id="SVGID_12_" gradientUnits="userSpaceOnUse" x1="268.3587" y1="595.0402" x2="268.3587" y2="3.5422">
		<stop  offset="0" style="stop-color:#FF219D"/>
		<stop  offset="0.146" style="stop-color:#E040AB"/>
		<stop  offset="0.4641" style="stop-color:#918DD0"/>
		<stop  offset="0.5132" style="stop-color:#849AD6"/>
		<stop  offset="0.7674" style="stop-color:#3DD0DE"/>
		<stop  offset="1" style="stop-color:#00FFE5"/>
	</linearGradient>
	<path class="st12" d="M516.03,394.62V190.94c11.18-6.9,18.64-19.27,18.64-33.37c0-21.64-17.54-39.18-39.18-39.18
		c-11.01,0-20.97,4.55-28.08,11.86L306.95,37.62c-2.51-19.23-18.94-34.08-38.85-34.08c-19.91,0-36.35,14.86-38.85,34.08
		L69.14,130.07c-7.11-7.21-16.98-11.68-27.91-11.68c-21.64,0-39.18,17.54-39.18,39.18c0,13.89,7.23,26.09,18.13,33.05v204.32
		c-10.9,6.95-18.13,19.15-18.13,33.04c0,21.64,17.54,39.18,39.18,39.18c4.83,0,9.45-0.87,13.73-2.47l175.27,101.19
		c4.42,16.79,19.71,29.16,37.88,29.16s33.46-12.37,37.89-29.16l175.46-101.3c4.35,1.67,9.08,2.59,14.03,2.59
		c21.64,0,39.18-17.54,39.18-39.18C534.67,413.88,527.21,401.51,516.03,394.62z M489.23,389.3c-18.66,2.99-32.93,19.17-32.93,38.68
		c0,6.38,1.53,12.41,4.23,17.73l-158.1,91.27c-6.67-12.11-19.55-20.3-34.34-20.3c-14.8,0-27.67,8.21-34.34,20.31l-157.7-91.05
		c2.78-5.38,4.35-11.49,4.35-17.96c0-19.69-14.52-35.98-33.43-38.76V196.34c18.92-2.79,33.43-19.08,33.43-38.77
		c0-1.01-0.04-2.02-0.11-3.01l155.44-89.75c7.05,10.32,18.92,17.08,32.36,17.08s25.3-6.77,32.36-17.08l155.94,90.03
		c-0.06,0.9-0.09,1.8-0.09,2.72c0,19.51,14.26,35.69,32.93,38.69V389.3z"/>
</g>
<g>
	<linearGradient id="SVGID_13_" gradientUnits="userSpaceOnUse" x1="411.0214" y1="297.3049" x2="428.5193" y2="297.3049">
		<stop  offset="0" style="stop-color:#E249DE"/>
		<stop  offset="0.3216" style="stop-color:#9337D8"/>
		<stop  offset="0.492" style="stop-color:#6E2FD5"/>
		<stop  offset="0.5913" style="stop-color:#7E32D6"/>
		<stop  offset="0.7865" style="stop-color:#A93ADA"/>
		<stop  offset="1" style="stop-color:#DF44DF"/>
	</linearGradient>
	<path class="st13" d="M428.52,315.11c-0.11-0.18-0.21-0.37-0.3-0.56l-15.49-31.3c-0.61-1.23-1.18-2.48-1.71-3.74L428.52,315.11z"/>
</g>
<g>
	<path class="st0" d="M919.04,206.77c11.11,10.33,22.19,20.67,33.34,30.96c1.24,1.14,1.8,2.29,1.79,3.94
		c-0.05,32.85-0.05,65.7,0,98.55c0,1.58-0.49,2.7-1.69,3.81c-10.61,9.77-21.17,19.57-31.71,29.4c-1.08,1-2.15,1.54-3.76,1.54
		c-36.68-0.04-73.35-0.03-110.03-0.03c-2.47,0-2.52-0.03-2.52-2.15c0-55.12,0-110.24,0-165.36c0-0.22,0.02-0.45,0.03-0.67
		C842.67,206.77,880.85,206.77,919.04,206.77z M836.25,290.81c0,18.6,0.02,37.2-0.03,55.8c0,1.62,0.53,2.07,2.25,2.07
		c21.25-0.05,42.51-0.04,63.76-0.01c1.28,0,2.26-0.29,3.19-1.17c5.23-4.92,10.49-9.81,15.8-14.65c0.99-0.9,1.34-1.84,1.34-3.09
		c-0.03-25.9-0.03-51.79,0-77.69c0-1.27-0.4-2.19-1.38-3.09c-5.22-4.77-10.4-9.57-15.53-14.42c-1.06-1.01-2.17-1.36-3.66-1.35
		c-21.07,0.03-42.15,0.02-63.22,0.02c-2.51,0-2.52,0.01-2.52,2.44C836.25,254.05,836.25,272.43,836.25,290.81z"/>
	<path class="st0" d="M1145.5,206.77c0.02,0.78,0.07,1.56,0.07,2.34c0,54.29,0,108.59,0,162.88c0,2.96,0,2.96-3.26,2.96
		c-6.84,0-13.69-0.05-20.53,0.03c-1.69,0.02-2.73-0.5-3.71-1.77c-13.54-17.51-27.12-34.99-40.7-52.47
		c-16.7-21.5-33.4-43-50.11-64.51c-0.41-0.53-0.86-1.04-1.63-1.96c0,1.1,0,1.74,0,2.37c0,38.31,0,76.62,0,114.94
		c0,0.56-0.05,1.12,0.01,1.67c0.14,1.35-0.55,1.71-1.91,1.71c-8.83-0.04-17.65-0.04-26.48,0c-1.44,0.01-2.17-0.4-2.02-1.81
		c0.03-0.33,0-0.67,0-1c0-54.52,0-109.03,0-163.55c0-0.61,0.02-1.22,0.03-1.84c9.73,0,19.45,0,29.18,0
		c2.27,2.87,4.57,5.73,6.81,8.61c26.68,34.3,53.34,68.61,80.02,102.92c1.18,1.52,2.37,3.02,3.64,4.64c0.4-0.81,0.24-1.48,0.24-2.12
		c0.01-37.07,0.01-74.15,0.01-111.22c0-0.95,0.05-1.89,0.07-2.84C1125.32,206.77,1135.41,206.77,1145.5,206.77z"/>
	<path class="st0" d="M761.93,206.77c0.02,8.3,0.03,16.59,0.08,24.89c0.01,1.13-0.45,1.66-1.69,1.58c-0.6-0.04-1.2,0-1.8,0
		c-34.46,0-68.92,0-103.38,0c-2.62,0-2.63,0-2.63,2.49c0,13.09,0,26.17,0,39.26c0,2.19,0.01,2.19,2.4,2.19c30.32,0,60.63,0,90.95,0
		c2.81,0,2.81,0,2.81,2.54c0,7.13,0,14.25,0,21.38c0,2.3-0.01,2.31-2.52,2.31c-30.26,0-60.51,0-90.77,0c-2.87,0-2.87,0-2.87,2.6
		c0,13.48,0,26.95,0,40.43c0,2.21,0.01,2.21,2.37,2.21c34.76,0,69.52,0,104.28,0c2.83,0,2.83,0,2.83,2.69
		c0,7.18-0.04,14.37,0.03,21.55c0.02,1.61-0.56,2.09-2.28,2.09c-45.51-0.04-91.01-0.04-136.52,0c-1.8,0-2.36-0.47-2.36-2.17
		c0.04-54.79,0.04-109.58,0.04-164.38c0-0.55,0.09-1.11,0.14-1.66C668.02,206.77,714.98,206.77,761.93,206.77z"/>
	<path class="st0" d="M1282.01,206.77c1.6,4.55,3.73,8.92,5.66,13.35c17.36,39.9,34.75,79.79,52.13,119.68
		c4.79,10.99,9.6,21.98,14.4,32.97c0.95,2.17,0.94,2.17-1.55,2.17c-9.67,0-19.33-0.06-29,0.05c-2.06,0.02-2.9-0.67-3.59-2.38
		c-4.49-11.1-9.12-22.15-13.63-33.24c-0.58-1.43-1.35-1.92-3.01-1.91c-25.34,0.05-50.67,0.05-76.01,0c-1.59,0-2.3,0.48-2.86,1.85
		c-4.56,11.25-9.23,22.47-13.78,33.72c-0.57,1.42-1.29,1.97-2.97,1.96c-9.31-0.08-18.61-0.04-27.92-0.04
		c-2.44,0-2.45-0.02-1.55-2.08c15.94-36.71,31.89-73.42,47.83-110.13c7.85-18.07,15.69-36.14,23.52-54.21
		c0.24-0.56,0.4-1.16,0.6-1.74C1260.88,206.77,1271.45,206.77,1282.01,206.77z M1265.77,241.25c-0.15,0.01-0.31,0.01-0.46,0.02
		c-0.29,0.66-0.59,1.31-0.86,1.98c-9.1,22.04-18.2,44.07-27.3,66.11c-0.78,1.9-0.79,1.9,1.4,1.9c17.89,0,35.78,0,53.66,0
		c2.42,0,2.41,0,1.57-2.06c-8.05-19.55-16.09-39.1-24.14-58.65C1268.36,247.45,1267.06,244.35,1265.77,241.25z"/>
</g>
</svg>
