<?xml version="1.0" encoding="utf-8"?>
<!-- Generator: Adobe Illustrator 23.0.1, SVG Export Plug-In . SVG Version: 6.00 Build 0)  -->
<svg version="1.1" id="Layer_1" xmlns="http://www.w3.org/2000/svg" xmlns:xlink="http://www.w3.org/1999/xlink" x="0px" y="0px"
	 viewBox="0 0 534.61 534.61" style="enable-background:new 0 0 534.61 534.61;" xml:space="preserve">
<style type="text/css">
	.st0{fill:none;stroke:#FFFFFF;stroke-width:25;stroke-linecap:round;stroke-linejoin:round;stroke-miterlimit:10;}
	.st1{fill:#FFFFFF;}
</style>
<polyline class="st0" points="270.44,481.56 485.5,266.22 485.5,167.95 377.25,59.56 269,167.95 160.75,59.56 52.5,167.95 
	52.5,266.22 267.56,481.56 "/>
<polyline class="st0" points="270.44,481.56 299.12,452.84 423.91,327.89 485.5,266.22 485.5,208.16 485.5,167.95 377.37,59.68 
	377.25,59.56 377.15,59.66 315.68,121.21 272.07,164.88 269,167.95 262.23,161.17 203.73,102.59 185.6,84.44 160.75,59.56 
	52.5,167.95 52.5,195.07 52.5,217.52 52.5,266.22 81.11,294.86 213.55,427.48 267.56,481.56 "/>
<g>
	<path class="st1" d="M485.5,167.95L377.37,59.68c-0.07-0.01-0.14-0.02-0.22-0.02l-61.47,61.55l3.13,0.56l12.32,12.32l99.66,99.66
		l-44.92,44.92l-113.8-113.79l-3.07,3.07l-6.77-6.78l-55.44-4.85c-0.31-0.02-0.61-0.03-0.91-0.03c-4.85,0-9.11,3.42-10.08,8.26
		l-4.69,23.23c-2.92,14.52-17.11,23.95-31.64,21.02c-7.03-1.42-13.1-5.49-17.07-11.47c-3.97-5.97-5.37-13.14-3.96-20.17l4.69-23.23
		c5.97-29.63,31.62-50.38,60.6-51.34L185.6,84.44c-30.76,7.65-55.99,32.34-62.66,65.42l-4.68,23.23
		c-5.17,25.65,11.49,50.72,37.14,55.89s50.73-11.49,55.9-37.14l2.86-14.2l45.53,3.98l140.44,140.44c4.37,4.37,4.37,11.47,0,15.83
		c-4.36,4.36-11.46,4.36-15.82,0l-57.72-57.72c-4.02-4.02-10.54-4.02-14.56,0s-4.02,10.54,0,14.56l57.72,57.72
		c2.11,2.11,3.28,4.92,3.28,7.91s-1.17,5.8-3.28,7.91c-4.37,4.37-11.47,4.37-15.83,0l-57.72-57.72c-4.02-4.02-10.54-4.02-14.56,0
		s-4.02,10.54,0,14.56l57.72,57.72c4.37,4.37,4.37,11.47,0,15.83c-2.11,2.11-4.92,3.28-7.91,3.28s-5.8-1.17-7.91-3.28l-57.72-57.72
		c-4.02-4.02-10.54-4.02-14.56,0s-4.02,10.54,0,14.56l57.72,57.72c4.36,4.36,4.36,11.46,0,15.83c-4.36,4.36-11.46,4.36-15.83,0
		L88.92,224.82l-26.97-26.97c-2.57-2.57-6.15-3.49-9.45-2.78v22.45l21.86,21.86l29.35,29.35l-16.18,16.18
		c-2.87,2.87-5.05,6.26-6.42,9.95l132.44,132.62c3.68-1.36,7.14-3.52,10.09-6.47l16.18-16.17l38.77,38.77
		c5.54,5.54,12.78,8.78,20.53,9.23l124.79-124.95c-0.47-7.43-3.54-14.72-9.21-20.39l-14.27-14.27l85.07-85.07L485.5,167.95
		L485.5,167.95z M107.37,315.29l-5.28-5.28c-2.91-2.9-2.91-7.63,0-10.54l15.17-15.17l15.83,15.82l-15.17,15.17
		C115.01,318.2,110.28,318.2,107.37,315.29z M137.76,345.68l-5.28-5.28c-2.91-2.91-2.91-7.64,0-10.54l15.17-15.18l15.83,15.83
		l-15.17,15.17C145.4,348.59,140.66,348.59,137.76,345.68z M168.14,376.07l-5.28-5.28c-1.41-1.41-2.18-3.28-2.18-5.27
		s0.77-3.87,2.18-5.28l15.18-15.17l15.82,15.83l-15.17,15.17C175.78,378.98,171.05,378.98,168.14,376.07z M209.08,406.46
		c-2.91,2.9-7.64,2.9-10.55,0l-5.28-5.28c-2.91-2.91-2.91-7.64,0-10.55l15.17-15.17l15.83,15.82L209.08,406.46z M474.37,190.17
		l-29.02,29.02l-99.66-99.66c-1.96-1.96-3.04-4.56-3.04-7.32c0-2.77,1.08-5.37,3.04-7.33l21.7-21.7c1.95-1.96,4.55-3.03,7.32-3.03
		c2.76,0,5.37,1.07,7.32,3.03l92.34,92.34c1.96,1.95,3.03,4.55,3.03,7.32S476.33,188.21,474.37,190.17z"/>
	<circle class="st1" cx="449.45" cy="186.93" r="10.3"/>
</g>
</svg>
