<?xml version="1.0" encoding="utf-8"?>
<!-- Generator: Adobe Illustrator 23.0.1, SVG Export Plug-In . SVG Version: 6.00 Build 0)  -->
<svg version="1.1" id="Layer_1" xmlns="http://www.w3.org/2000/svg" xmlns:xlink="http://www.w3.org/1999/xlink" x="0px" y="0px"
	 viewBox="0 0 534.61 534.61" style="enable-background:new 0 0 534.61 534.61;" xml:space="preserve">
<style type="text/css">
	.st0{fill:none;stroke:#FFFFFF;stroke-width:25;stroke-linecap:round;stroke-linejoin:round;stroke-miterlimit:10;}
</style>
<polygon class="st0" points="492.68,348.1 349.4,491.39 149.98,468.92 148.03,468.7 94.29,383.17 40.22,297.12 107.15,105.85 
	298.42,38.93 384.66,93.12 470,146.74 470.2,148.51 "/>
<g>
	<path class="st0" d="M94.29,383.17c23.52-4.03,46.68-3.79,64.04-2.54c17.59,1.27,29.22,3.58,29.22,3.58s34.43,6.85,74.38,3.44
		c31.72-2.71,66.93-11.89,91.16-36.12c11.13-11.13,19.09-24.58,24.69-38.95c6.61-16.9,9.96-35.06,11.43-52.21
		c3.41-39.95-3.44-74.38-3.44-74.38s-2.31-11.63-3.58-29.22c-1.25-17.26-1.48-40.27,2.47-63.65"/>
	<path class="st0" d="M149.98,468.92c9.88-31.07,10.04-64.93,8.35-88.29c-1.27-17.58-3.58-29.21-3.58-29.21
		s-22.05-110.81,32.69-165.54c54.73-54.74,165.54-32.69,165.54-32.69s11.63,2.31,29.21,3.58c23.29,1.69,57.02,1.53,88.01-8.26"/>
	<line class="st0" x1="251.67" y1="250.11" x2="191" y2="189.44"/>
	<line class="st0" x1="353.09" y1="351.53" x2="284.46" y2="282.9"/>
	<line class="st0" x1="298.21" y1="233.01" x2="229.95" y2="164.75"/>
	<line class="st0" x1="377.79" y1="312.59" x2="331.01" y2="265.81"/>
	<line class="st0" x1="311.48" y1="182.64" x2="282.17" y2="153.33"/>
	<line class="st0" x1="389.21" y1="260.37" x2="344.28" y2="215.44"/>
	<line class="st0" x1="191.77" y1="251.69" x2="167.39" y2="227.31"/>
	<line class="st0" x1="314.97" y1="375.4" x2="224.28" y2="284.72"/>
	<line class="st0" x1="184.2" y1="309.92" x2="154.89" y2="280.61"/>
	<line class="st0" x1="261.93" y1="387.65" x2="217" y2="342.72"/>
</g>
</svg>
